<?xml version="1.0" encoding="UTF-8"?>
<svg id="Transparent_x5F_Black" xmlns="http://www.w3.org/2000/svg" viewBox="0 0 512 512">
  <path id="Folder" d="M448,64h-186.88l-85.33-42.67h-111.79C28.8,21.33,0,50.13,0,85.33v405.33h281.17c-12.8-12.8-25.6-27.09-36.91-42.67H42.67V192h426.67v48.21c16,5.12,30.51,14.08,42.67,25.17v-137.39c0-35.2-28.8-64-64-64ZM42.67,85.33c0-11.73,9.6-21.33,21.33-21.33h101.55l85.33,42.67h197.12c11.73,0,21.33,9.6,21.33,21.33v21.33H42.67v-64Z"/>
  <path id="Camera" d="M380.26,315.02c0,19.4-15.73,35.13-35.13,35.13s-35.13-15.73-35.13-35.13,15.73-35.13,35.13-35.13,35.13,15.73,35.13,35.13ZM424.18,279.89c-19.4,0-35.13,15.73-35.13,35.13s15.73,35.13,35.13,35.13,35.13-15.73,35.13-35.13-15.73-35.13-35.13-35.13ZM468.09,394.06v96.61h-166.87v-96.61c0-14.53,11.82-26.35,26.35-26.35h114.17c14.53,0,26.35,11.82,26.35,26.35ZM485.65,396.2v65.98l26.35,19.64v-105.26l-26.35,19.64Z"/>
</svg>