<?xml version="1.0" encoding="UTF-8"?>
<svg id="Inverted" xmlns="http://www.w3.org/2000/svg" viewBox="0 0 512 512">
  <defs>
    <style>
      .cls-1 {
        fill: #f8e938;
      }

      .cls-2 {
        fill: #2e2d2c;
      }
    </style>
  </defs>
  <rect id="Background" class="cls-2" x="0" width="512" height="512"/>
  <path id="Folder" class="cls-1" d="M390.79,121.21h-131.2l-59.91-29.95h-78.48c-24.71,0-44.93,20.22-44.93,44.93v284.56h197.39c-8.99-8.99-17.97-19.02-25.91-29.95H106.23v-179.72h299.54v33.85c11.23,3.59,21.42,9.88,29.95,17.67v-96.45c0-24.71-20.22-44.93-44.93-44.93ZM106.23,136.19c0-8.24,6.74-14.98,14.98-14.98h71.29l59.91,29.95h138.39c8.24,0,14.98,6.74,14.98,14.98v14.98H106.23v-44.93Z"/>
  <path id="Camera" class="cls-1" d="M343.24,297.43c0,13.62-11.04,24.66-24.66,24.66s-24.66-11.04-24.66-24.66,11.04-24.66,24.66-24.66,24.66,11.04,24.66,24.66ZM374.07,272.77c-13.62,0-24.66,11.04-24.66,24.66s11.04,24.66,24.66,24.66,24.66-11.04,24.66-24.66-11.04-24.66-24.66-24.66ZM404.89,352.92v67.82h-117.15v-67.82c0-10.2,8.3-18.5,18.5-18.5h80.15c10.2,0,18.5,8.3,18.5,18.5ZM417.22,354.43v46.32l18.5,13.79v-73.89l-18.5,13.79Z"/>
</svg>